<svg version="1.1" id="Layer_1" xmlns="http://www.w3.org/2000/svg" xmlns:xlink="http://www.w3.org/1999/xlink" x="0px" y="0px"
	 width="100%" viewBox="0 0 1024 559" enable-background="new 0 0 1024 559" xml:space="preserve">
<path fill="#FFFFFF" opacity="1.000000" stroke="none" 
	d="
M230.000000,1.000000 
	C418.025848,1.000000 606.051697,1.000000 794.538757,1.465273 
	C795.666687,9.992450 796.739258,18.045694 796.911438,26.118149 
	C797.223755,40.761951 796.999878,55.417187 797.000061,70.067650 
	C797.000183,85.306549 797.001160,100.545448 797.000732,115.784348 
	C797.000061,140.017166 797.356934,164.257019 796.881531,188.480530 
	C796.515381,207.138428 798.710388,225.835220 796.071533,244.462952 
	C795.848328,246.038345 796.544067,247.722839 796.602173,249.364120 
	C796.689270,251.825333 796.779297,254.313187 796.521729,256.753143 
	C796.196350,259.836914 795.157349,262.876556 795.095215,265.948792 
	C795.022095,269.562256 795.903625,273.186493 795.960815,276.812531 
	C796.366211,302.500763 796.758423,328.189911 796.969482,353.880280 
	C797.124939,372.809296 796.893250,391.741760 797.087830,410.670044 
	C797.127930,414.572723 798.922913,418.480164 798.822632,422.357330 
	C798.471619,435.936737 797.462463,449.498383 797.059998,463.077362 
	C796.756775,473.308655 797.258118,483.564636 796.922180,493.793884 
	C796.623779,502.881195 795.315002,511.937927 795.084106,521.024231 
	C794.754089,534.008484 795.000000,547.007385 795.000000,560.000000 
	C607.307495,560.000000 419.614990,560.000000 231.461090,559.559875 
	C230.666641,553.331665 230.139084,547.546692 230.044235,541.754700 
	C229.884735,532.013367 230.000092,522.267456 230.000031,512.523499 
	C229.999924,497.613770 230.000000,482.704041 230.000000,467.794312 
	C230.000000,457.050568 230.129410,446.304810 229.962814,435.563660 
	C229.803192,425.272949 229.129700,414.988098 229.075348,404.698608 
	C229.037766,397.578461 229.849564,390.457520 229.957565,383.332031 
	C230.120361,372.590759 230.000000,361.845215 230.000000,351.101471 
	C230.000000,337.691711 230.124557,324.280396 229.958496,310.872711 
	C229.837234,301.081940 229.101990,291.296570 229.072556,281.507507 
	C229.048645,273.553314 229.803909,265.599945 229.962418,257.641174 
	C230.129898,249.233261 230.000000,240.819397 230.000000,232.408127 
	C230.000000,221.664398 230.103226,210.919495 229.978607,200.177200 
	C229.716232,177.557968 229.219803,154.940887 229.063477,132.321243 
	C229.008514,124.368675 229.844833,116.413696 229.957794,108.455330 
	C230.122116,96.879517 230.000000,85.299637 230.000000,73.721497 
	C230.000000,62.477901 230.000000,51.234303 230.000000,39.990707 
	C230.000000,26.993805 230.000000,13.996902 230.000000,1.000000 
M283.001038,215.000519 
	C283.001038,215.000519 283.072052,215.062683 282.331299,215.015625 
	C277.653076,216.885941 274.090271,219.794235 273.000000,225.000000 
	C273.000000,225.000000 273.021820,225.019531 272.252930,224.995117 
	C270.540131,225.805542 268.487732,226.259003 267.184052,227.499420 
	C264.319672,230.224838 261.881165,233.391968 259.185242,236.301315 
	C249.258972,247.013382 243.826965,259.684174 244.196579,274.247559 
	C244.368591,281.025024 246.103271,287.875519 248.014221,294.435242 
	C248.686676,296.743561 248.419296,301.397858 253.685898,301.126617 
	C253.877899,301.374481 253.986374,301.654694 254.135406,302.398132 
	C254.278793,302.675751 254.494965,302.873962 255.028320,303.314240 
	C255.028320,303.314240 255.109421,303.709808 255.191116,304.273102 
	C255.469299,304.513794 255.747482,304.754486 256.498657,305.220245 
	C256.711792,305.692719 256.924896,306.165222 257.216339,307.226166 
	C257.512695,307.466400 257.809082,307.706635 258.005890,307.966583 
	C258.005890,307.966583 258.084808,307.902771 258.018372,308.693817 
	C258.723572,310.489044 259.000244,312.667969 260.206238,314.014740 
	C266.247314,320.760834 272.595062,327.231018 278.713196,333.909790 
	C285.058746,340.836853 291.102936,348.046844 297.600403,354.824951 
	C300.820709,358.184296 304.762543,360.852020 308.730560,364.004791 
	C308.951813,364.165588 309.097290,364.378204 309.064880,365.428192 
	C309.541687,366.609009 309.748779,368.023254 310.537354,368.934235 
	C317.836060,377.365753 325.132050,385.805450 332.686615,394.005249 
	C334.316925,395.774811 336.983795,396.589386 339.156372,397.943054 
	C339.156372,397.943054 339.152313,397.851044 339.048187,398.601624 
	C342.585785,402.975708 346.084473,407.382812 349.720154,411.673798 
	C350.091553,412.112152 351.284973,411.854034 352.008026,412.000214 
	C352.008026,412.000214 352.080261,411.904236 352.024292,412.657196 
	C353.571320,415.332794 354.718140,418.366730 356.736053,420.620758 
	C364.635803,429.444885 373.105560,437.770721 380.793945,446.768433 
	C387.447906,454.555542 395.177338,460.844238 404.206696,465.344574 
	C412.470093,469.463196 421.499634,470.342865 430.760162,470.073059 
	C445.494415,469.643738 457.373688,462.575195 468.276367,453.903473 
	C474.664673,448.822418 479.662476,442.013367 485.414490,436.106995 
	C492.854309,428.467499 500.538849,421.062775 507.855255,413.309082 
	C509.725342,411.327179 510.605865,408.411591 511.998169,405.994415 
	C511.998169,405.994415 511.921783,405.947174 512.841980,405.845093 
	C513.139099,405.761597 513.436218,405.678101 514.262451,405.941559 
	C528.900146,420.721100 543.595703,435.443939 558.162415,450.293091 
	C581.909912,474.500977 616.880615,473.972137 639.940430,448.908691 
	C646.586792,441.684845 653.066956,434.308441 659.651123,427.027039 
	C695.592102,387.279724 731.698914,347.680664 767.418762,307.735626 
	C783.955627,289.242676 783.662598,258.170746 766.922363,239.971100 
	C755.889771,227.976761 744.053040,216.715012 732.445374,205.257935 
	C700.104126,173.336395 667.707214,141.471100 635.303345,109.613098 
	C626.784363,101.237595 616.848022,95.431877 604.848999,93.753563 
	C584.816772,90.951637 568.418152,97.775635 554.464905,112.149658 
	C541.276611,125.735710 527.515930,138.766113 513.079651,151.385544 
	C512.358826,151.278061 511.637970,151.170578 510.997742,151.005478 
	C510.997742,151.005478 510.934875,151.082123 510.980316,150.340225 
	C510.088776,148.832581 509.450989,147.078979 508.265717,145.856033 
	C498.387115,135.663467 488.508606,125.466583 478.418427,115.484962 
	C472.903992,110.029846 467.210419,104.695869 461.125000,99.907951 
	C458.752136,98.041031 456.051331,94.133881 451.246765,97.179520 
	C450.483246,96.835571 449.719727,96.491631 448.721588,95.485764 
	C442.292389,87.464058 433.128540,90.486473 425.326569,90.793983 
	C418.494232,91.063271 411.757812,94.606384 405.071625,96.965790 
	C403.872559,97.388924 403.123932,99.088646 402.103363,100.208252 
	C402.103363,100.208252 402.151520,100.166176 401.382202,100.051270 
	C398.778595,101.348129 395.744934,102.162491 393.649689,104.029785 
	C386.575104,110.334709 379.729706,116.909706 373.035675,123.619873 
	C371.299011,125.360741 370.434082,127.971283 369.040436,129.986420 
	C369.040436,129.986420 369.183746,130.173492 368.419800,130.060898 
	C367.480347,130.292267 366.264709,130.227325 365.646576,130.803452 
	C361.825684,134.364761 358.065399,138.000504 354.479706,141.795532 
	C353.869446,142.441406 354.199280,143.975494 353.998871,145.004639 
	C353.998871,145.004639 354.095917,145.095001 353.352783,145.024979 
	C352.707184,145.145782 351.860168,145.045135 351.446747,145.421188 
	C346.672302,149.764252 341.876495,154.090576 337.263824,158.602768 
	C333.324463,162.456299 329.686432,166.616501 325.782867,170.508438 
	C322.446381,173.834991 318.851929,176.902039 315.495972,180.210083 
	C309.048859,186.565155 302.486206,192.823685 296.388275,199.502808 
	C293.713684,202.432327 288.107178,203.385071 288.998962,209.004074 
	C288.998962,209.004074 289.138794,209.137238 288.367188,209.052094 
	C284.584076,209.283264 282.928528,211.389175 283.001038,215.000519 
z"/>
<path fill="#F7FCFF" opacity="1.000000" stroke="none" 
	d="
M229.531342,1.000000 
	C230.000000,13.996902 230.000000,26.993805 230.000000,39.990707 
	C230.000000,51.234303 230.000000,62.477901 230.000000,73.721497 
	C230.000000,85.299637 230.122116,96.879517 229.957794,108.455330 
	C229.844833,116.413696 229.008514,124.368675 229.063477,132.321243 
	C229.219803,154.940887 229.716232,177.557968 229.978607,200.177200 
	C230.103226,210.919495 230.000000,221.664398 230.000000,232.408127 
	C230.000000,240.819397 230.129898,249.233261 229.962418,257.641174 
	C229.803909,265.599945 229.048645,273.553314 229.072556,281.507507 
	C229.101990,291.296570 229.837234,301.081940 229.958496,310.872711 
	C230.124557,324.280396 230.000000,337.691711 230.000000,351.101471 
	C230.000000,361.845215 230.120361,372.590759 229.957565,383.332031 
	C229.849564,390.457520 229.037766,397.578461 229.075348,404.698608 
	C229.129700,414.988098 229.803192,425.272949 229.962814,435.563660 
	C230.129410,446.304810 230.000000,457.050568 230.000000,467.794312 
	C230.000000,482.704041 229.999924,497.613770 230.000031,512.523499 
	C230.000092,522.267456 229.884735,532.013367 230.044235,541.754700 
	C230.139084,547.546692 230.666641,553.331665 230.999832,559.559875 
	C154.366287,560.000000 77.732582,560.000000 1.049435,560.000000 
	C1.049435,373.779724 1.049435,187.559448 1.049435,1.000000 
	C77.020561,1.000000 153.041626,1.000000 229.531342,1.000000 
z"/>
<path fill="#F8FDFE" opacity="1.000000" stroke="none" 
	d="
M795.468628,560.000000 
	C795.000000,547.007385 794.754089,534.008484 795.084106,521.024231 
	C795.315002,511.937927 796.623779,502.881195 796.922180,493.793884 
	C797.258118,483.564636 796.756775,473.308655 797.059998,463.077362 
	C797.462463,449.498383 798.471619,435.936737 798.822632,422.357330 
	C798.922913,418.480164 797.127930,414.572723 797.087830,410.670044 
	C796.893250,391.741760 797.124939,372.809296 796.969482,353.880280 
	C796.758423,328.189911 796.366211,302.500763 795.960815,276.812531 
	C795.903625,273.186493 795.022095,269.562256 795.095215,265.948792 
	C795.157349,262.876556 796.196350,259.836914 796.521729,256.753143 
	C796.779297,254.313187 796.689270,251.825333 796.602173,249.364120 
	C796.544067,247.722839 795.848328,246.038345 796.071533,244.462952 
	C798.710388,225.835220 796.515381,207.138428 796.881531,188.480530 
	C797.356934,164.257019 797.000061,140.017166 797.000732,115.784348 
	C797.001160,100.545448 797.000183,85.306549 797.000061,70.067650 
	C796.999878,55.417187 797.223755,40.761951 796.911438,26.118149 
	C796.739258,18.045694 795.666687,9.992450 795.000000,1.465273 
	C871.633728,1.000000 948.267517,1.000000 1024.950684,1.000000 
	C1024.950684,187.220383 1024.950684,373.440796 1024.950684,560.000000 
	C948.646118,560.000000 872.291687,560.000000 795.468628,560.000000 
z"/>
<path fill="#5A5E60" opacity="1.000000" stroke="none" 
	d="
M514.006958,152.040894 
	C527.515930,138.766113 541.276611,125.735710 554.464905,112.149658 
	C568.418152,97.775635 584.816772,90.951637 604.848999,93.753563 
	C616.848022,95.431877 626.784363,101.237595 635.303345,109.613098 
	C667.707214,141.471100 700.104126,173.336395 732.445374,205.257935 
	C744.053040,216.715012 755.889771,227.976761 766.922363,239.971100 
	C783.662598,258.170746 783.955627,289.242676 767.418762,307.735626 
	C731.698914,347.680664 695.592102,387.279724 659.651123,427.027039 
	C653.066956,434.308441 646.586792,441.684845 639.940430,448.908691 
	C616.880615,473.972137 581.909912,474.500977 558.162415,450.293091 
	C543.595703,435.443939 528.900146,420.721100 513.859192,405.553772 
	C513.304565,405.087860 513.153198,405.009796 512.952637,404.729370 
	C512.903320,404.527039 512.847717,404.114227 513.163940,403.960693 
	C523.515442,393.510101 533.567688,383.229462 543.550781,372.882050 
	C544.279480,372.126740 544.506897,370.887848 545.268250,369.905090 
	C545.770325,369.948944 545.971619,369.961578 546.172852,370.312866 
	C558.627686,383.803986 570.998291,397.037659 583.561340,410.086060 
	C596.005371,423.010742 611.037354,422.536652 622.913879,409.178528 
	C656.634033,371.251709 690.363037,333.332764 724.145996,295.461853 
	C736.029785,282.140045 735.415039,266.786011 722.643860,254.349442 
	C686.052795,218.716949 649.539551,183.004303 613.057373,147.260223 
	C601.844238,136.273911 590.279358,136.116638 579.094666,147.105728 
	C567.236206,158.756729 555.388428,170.418579 543.156860,182.039780 
	C540.024780,179.668579 537.147522,177.463242 534.542542,174.973145 
	C527.334778,168.083359 520.240540,161.074799 513.109314,153.943985 
	C513.117188,153.774796 513.079224,153.438187 513.320984,153.262848 
	C513.710815,152.738647 513.858887,152.389771 514.006958,152.040894 
z"/>
<path fill="#4CA1C4" opacity="1.000000" stroke="none" 
	d="
M512.847717,404.114227 
	C512.847717,404.114227 512.903320,404.527039 512.710938,404.829376 
	C512.319641,405.403534 512.120728,405.675354 511.921814,405.947205 
	C511.921783,405.947174 511.998169,405.994415 511.663330,406.092712 
	C496.287964,421.499298 481.510315,437.078003 466.126587,452.033295 
	C452.973389,464.820160 437.038269,470.334351 418.588715,467.208435 
	C405.044678,464.913666 394.259613,457.823547 385.128448,447.867981 
	C374.123688,435.869720 363.097290,423.891266 352.080261,411.904236 
	C352.080261,411.904236 352.008026,412.000214 351.929260,411.648010 
	C347.617767,406.814240 343.385040,402.332642 339.152313,397.851044 
	C339.152313,397.851044 339.156372,397.943054 339.083313,397.569397 
	C329.062500,386.344696 319.114746,375.493683 309.166992,364.642639 
	C309.097290,364.378204 308.951813,364.165588 308.426147,363.597839 
	C291.442749,344.761536 274.763763,326.332153 258.084808,307.902771 
	C258.084808,307.902771 258.005890,307.966583 257.988464,307.679413 
	C257.693359,307.140717 257.415680,306.889221 257.138031,306.637695 
	C256.924896,306.165222 256.711792,305.692719 256.196594,304.839294 
	C255.632828,304.208832 255.371124,303.959320 255.109421,303.709808 
	C255.109421,303.709808 255.028320,303.314240 254.882965,302.919189 
	C254.587997,302.217987 254.345917,302.032349 254.011337,301.967255 
	C253.986374,301.654694 253.877899,301.374481 253.401245,300.639221 
	C242.304611,278.216187 244.299805,257.653290 260.002411,238.755966 
	C264.025696,233.914154 268.665344,229.584488 273.021820,225.019531 
	C273.021820,225.019531 273.000000,225.000000 273.325562,224.898376 
	C276.791443,221.552078 279.931763,218.307373 283.072052,215.062683 
	C283.072052,215.062683 283.001038,215.000519 283.340576,214.918869 
	C285.499664,212.937225 287.319214,211.037231 289.138794,209.137238 
	C289.138794,209.137238 288.998962,209.004074 289.374695,208.967682 
	C291.414185,207.543930 293.077972,206.156555 294.822693,205.148010 
	C294.412994,206.702545 294.213623,208.164703 293.384644,209.007706 
	C287.837646,214.648392 281.983429,219.994141 276.561798,225.749161 
	C269.464020,233.283371 262.652618,241.088455 255.774414,248.827148 
	C254.793350,249.930954 253.709854,251.217529 253.386551,252.587692 
	C251.299210,261.433838 247.551895,269.651917 248.655121,279.488312 
	C250.184952,293.128754 258.107788,302.767944 265.766296,312.717102 
	C270.132446,318.389099 275.910248,322.951233 280.743347,328.292786 
	C287.325470,335.567383 293.517731,343.193604 300.051392,350.513519 
	C307.299957,358.634338 314.783051,366.545288 322.090881,374.613892 
	C327.211761,380.267822 332.071838,386.162903 337.298584,391.714752 
	C343.615479,398.424561 350.353210,404.740265 356.623322,411.491638 
	C364.260895,419.715363 371.629242,428.190460 379.058990,436.605377 
	C383.113464,441.197418 387.022339,445.917908 391.067261,450.518555 
	C392.156616,451.757538 393.371307,452.979645 394.754059,453.851929 
	C402.715118,458.874359 410.899078,463.258240 420.283875,465.329742 
	C434.637054,468.497772 447.088257,462.794037 458.152557,455.659393 
	C467.021515,449.940399 473.653809,440.755096 481.286652,433.116058 
	C488.915161,425.481323 496.451752,417.750732 504.226990,410.268250 
	C508.644318,406.017334 508.771057,402.965149 504.401855,398.612488 
	C500.027039,394.254272 495.957306,389.591370 491.634033,385.179413 
	C487.855713,381.323547 483.910828,377.630951 479.791809,373.625305 
	C478.567291,375.126434 477.770111,376.158539 476.916046,377.141205 
	C473.137665,381.488464 469.493896,385.966003 465.517303,390.124664 
	C460.052246,395.839874 454.426666,401.411011 448.688171,406.852264 
	C444.237457,411.072418 440.079834,416.154694 434.767273,418.781525 
	C427.061676,422.591614 418.225098,424.820831 410.554016,418.191101 
	C404.608490,413.052612 399.136353,407.342255 393.678986,401.669464 
	C387.591583,395.341675 381.798676,388.731659 375.799561,382.317413 
	C372.421997,378.706085 368.668854,375.427551 365.472534,371.669373 
	C360.226807,365.501556 355.535522,358.854309 350.179077,352.790253 
	C341.363312,342.809845 332.106720,333.220062 323.215729,323.304443 
	C314.738586,313.850372 306.217224,304.410461 298.269745,294.518829 
	C294.806885,290.208862 290.224884,285.965973 291.102448,279.359802 
	C291.515442,276.250977 291.374573,273.033600 292.091644,270.009369 
	C292.910767,266.554749 293.777161,262.820557 295.752777,259.998840 
	C298.743164,255.727753 302.649750,252.082947 306.276123,248.275940 
	C311.617432,242.668579 316.955139,237.051483 322.474152,231.621216 
	C331.024536,223.208359 339.778870,215.003006 348.346405,206.607315 
	C354.477966,200.598740 360.344574,194.318726 366.506744,188.342682 
	C379.727661,175.520981 393.073395,162.828003 406.342163,150.055435 
	C408.549591,147.930527 410.541962,145.578583 412.790436,143.501190 
	C414.555695,141.870300 416.343353,139.812302 418.497620,139.125916 
	C434.300415,134.090805 443.218536,138.441193 454.303101,149.754120 
	C462.851593,158.478714 470.431335,168.210022 481.146851,174.814133 
	C485.318268,177.385025 486.445007,176.470367 489.411163,173.388763 
	C493.973999,168.648300 499.684082,165.012146 504.930237,160.930267 
	C504.953064,160.953064 504.998657,160.998672 504.861359,161.303101 
	C497.518158,169.022446 490.312225,176.437363 482.902771,183.908325 
	C482.699280,183.964371 482.279755,183.958206 482.276611,183.595245 
	C480.913818,181.583115 479.678131,179.810089 478.174530,178.304703 
	C467.465576,167.582779 456.679291,156.938187 445.962494,146.224045 
	C436.552521,136.816376 423.928253,136.675140 414.444397,146.013260 
	C403.643677,156.648056 392.947510,167.389389 382.111298,177.987686 
	C355.683319,203.835342 329.275818,229.704926 302.685120,255.384491 
	C296.366516,261.486603 293.433136,268.463867 293.637634,277.182404 
	C293.834259,285.564758 298.530365,291.466339 303.655548,297.235077 
	C324.883026,321.128082 346.133942,345.000244 367.388428,368.869263 
	C379.565186,382.543854 391.610474,396.339996 403.999268,409.820129 
	C415.881622,422.749237 430.636688,422.604370 442.666779,409.885162 
	C454.219604,397.670563 465.797180,385.479248 477.321228,373.237610 
	C478.181854,372.323395 478.699768,371.086548 479.580139,369.998444 
	C479.783234,369.997223 480.176575,370.098633 480.279083,370.404724 
	C491.203613,381.845276 502.025665,392.979767 512.847717,404.114227 
z"/>
<path fill="#4CA1C4" opacity="1.000000" stroke="none" 
	d="
M513.079224,153.438187 
	C513.079224,153.438187 513.117188,153.774796 512.802368,154.071259 
	C509.991302,156.578033 507.494965,158.788345 504.998657,160.998672 
	C504.998657,160.998672 504.953064,160.953064 504.965210,160.570404 
	C506.121857,158.093491 507.266357,155.999252 508.704803,153.367142 
	C504.462708,149.089630 499.954620,144.432327 495.323151,139.901108 
	C489.097412,133.810059 482.274109,128.248276 476.620483,121.674011 
	C469.155579,112.993507 461.477722,105.252068 450.749084,100.240341 
	C442.186096,96.240280 433.747528,94.613174 424.709381,95.695877 
	C417.855225,96.516930 411.610565,99.081367 405.266205,102.253998 
	C399.134705,105.320168 394.319214,109.278259 389.687866,113.904373 
	C385.863373,117.724586 382.081421,121.587395 378.258362,125.409065 
	C372.051086,131.614120 365.825867,137.801208 359.607819,143.995499 
	C357.675720,145.920212 355.787079,147.891327 353.799927,149.757446 
	C350.054932,153.274323 346.216583,156.692184 342.488770,160.226837 
	C340.440460,162.169006 338.527130,164.254608 336.572632,166.294388 
	C333.047852,169.972946 329.785889,173.954117 325.942230,177.260178 
	C322.929626,179.851395 319.204559,181.614319 315.933868,183.442062 
	C319.268066,179.989761 322.488373,176.864532 325.656250,173.687012 
	C335.147156,164.167313 344.617523,154.627167 354.095917,145.095001 
	C354.095917,145.095001 353.998871,145.004639 354.366974,144.949326 
	C359.551300,139.987167 364.367523,135.080338 369.183746,130.173492 
	C369.183746,130.173492 369.040436,129.986420 369.426910,130.001617 
	C380.592773,120.066612 391.372131,110.116394 402.151520,100.166176 
	C402.151520,100.166176 402.103363,100.208252 402.492310,100.153221 
	C417.686371,92.329185 433.034393,90.892372 448.956207,96.147690 
	C449.719727,96.491631 450.483246,96.835571 451.795715,97.480652 
	C458.438965,102.288933 465.046112,106.251282 470.526672,111.410362 
	C484.267883,124.345535 497.499115,137.822479 510.934875,151.082123 
	C510.934875,151.082123 510.997742,151.005478 511.079346,151.338257 
	C511.800385,152.260086 512.439819,152.849136 513.079224,153.438187 
z"/>
<path fill="#E3FAFD" opacity="1.000000" stroke="none" 
	d="
M352.052307,412.280701 
	C363.097290,423.891266 374.123688,435.869720 385.128448,447.867981 
	C394.259613,457.823547 405.044678,464.913666 418.588715,467.208435 
	C437.038269,470.334351 452.973389,464.820160 466.126587,452.033295 
	C481.510315,437.078003 496.287964,421.499298 511.634766,406.058044 
	C510.605865,408.411591 509.725342,411.327179 507.855255,413.309082 
	C500.538849,421.062775 492.854309,428.467499 485.414490,436.106995 
	C479.662476,442.013367 474.664673,448.822418 468.276367,453.903473 
	C457.373688,462.575195 445.494415,469.643738 430.760162,470.073059 
	C421.499634,470.342865 412.470093,469.463196 404.206696,465.344574 
	C395.177338,460.844238 387.447906,454.555542 380.793945,446.768433 
	C373.105560,437.770721 364.635803,429.444885 356.736053,420.620758 
	C354.718140,418.366730 353.571320,415.332794 352.052307,412.280701 
z"/>
<path fill="#E3FAFD" opacity="1.000000" stroke="none" 
	d="
M353.724365,145.059998 
	C344.617523,154.627167 335.147156,164.167313 325.656250,173.687012 
	C322.488373,176.864532 319.268066,179.989761 315.947021,183.475082 
	C315.822357,183.811279 315.885620,183.843735 315.625488,183.919708 
	C315.192902,184.299454 315.020447,184.603226 314.894867,184.922089 
	C314.941772,184.937164 314.903687,184.846268 314.640778,184.915497 
	C314.201080,185.285965 314.024261,185.587173 313.906281,185.901123 
	C313.965118,185.913879 313.878510,185.830231 313.608215,185.887070 
	C313.168854,186.254395 312.999786,186.564880 312.886902,186.917419 
	C312.943115,186.959473 312.874725,186.836853 312.610596,186.903091 
	C312.176880,187.276123 312.007294,187.582916 311.890411,187.914795 
	C311.943115,187.939880 311.886383,187.837860 311.620575,187.907349 
	C311.184967,188.285965 311.015198,188.595123 310.907532,188.897125 
	C310.969666,188.889984 310.850128,188.853134 310.540894,188.976730 
	C306.766113,192.677383 303.300568,196.254440 299.839783,199.883911 
	C299.844543,199.936310 299.889862,199.841309 299.628052,199.916107 
	C299.193115,200.295898 299.019989,200.600876 298.893982,200.920837 
	C298.941132,200.935791 298.902313,200.844788 298.638336,200.912689 
	C298.197540,201.282288 298.020752,201.583984 297.869202,201.856201 
	C297.894440,201.826706 297.816864,201.829834 297.518341,201.920746 
	C296.422424,202.947357 295.625031,203.883041 294.806458,204.805862 
	C294.785278,204.792999 294.741760,204.769180 294.741760,204.769196 
	C293.077972,206.156555 291.414185,207.543930 289.444214,209.035934 
	C288.107178,203.385071 293.713684,202.432327 296.388275,199.502808 
	C302.486206,192.823685 309.048859,186.565155 315.495972,180.210083 
	C318.851929,176.902039 322.446381,173.834991 325.782867,170.508438 
	C329.686432,166.616501 333.324463,162.456299 337.263824,158.602768 
	C341.876495,154.090576 346.672302,149.764252 351.446747,145.421188 
	C351.860168,145.045135 352.707184,145.145782 353.724365,145.059998 
z"/>
<path fill="#E3FAFD" opacity="1.000000" stroke="none" 
	d="
M272.637390,225.007324 
	C268.665344,229.584488 264.025696,233.914154 260.002411,238.755966 
	C244.299805,257.653290 242.304611,278.216187 253.217194,300.504822 
	C248.419296,301.397858 248.686676,296.743561 248.014221,294.435242 
	C246.103271,287.875519 244.368591,281.025024 244.196579,274.247559 
	C243.826965,259.684174 249.258972,247.013382 259.185242,236.301315 
	C261.881165,233.391968 264.319672,230.224838 267.184052,227.499420 
	C268.487732,226.259003 270.540131,225.805542 272.637390,225.007324 
z"/>
<path fill="#E3FAFD" opacity="1.000000" stroke="none" 
	d="
M510.957581,150.711182 
	C497.499115,137.822479 484.267883,124.345535 470.526672,111.410362 
	C465.046112,106.251282 458.438965,102.288933 452.114563,97.541763 
	C456.051331,94.133881 458.752136,98.041031 461.125000,99.907951 
	C467.210419,104.695869 472.903992,110.029846 478.418427,115.484962 
	C488.508606,125.466583 498.387115,135.663467 508.265717,145.856033 
	C509.450989,147.078979 510.088776,148.832581 510.957581,150.711182 
z"/>
<path fill="#E3FAFD" opacity="1.000000" stroke="none" 
	d="
M258.051575,308.298279 
	C274.763763,326.332153 291.442749,344.761536 308.249817,363.511780 
	C304.762543,360.852020 300.820709,358.184296 297.600403,354.824951 
	C291.102936,348.046844 285.058746,340.836853 278.713196,333.909790 
	C272.595062,327.231018 266.247314,320.760834 260.206238,314.014740 
	C259.000244,312.667969 258.723572,310.489044 258.051575,308.298279 
z"/>
<path fill="#E3FAFD" opacity="1.000000" stroke="none" 
	d="
M448.838898,95.816727 
	C433.034393,90.892372 417.686371,92.329185 402.524292,100.148575 
	C403.123932,99.088646 403.872559,97.388924 405.071625,96.965790 
	C411.757812,94.606384 418.494232,91.063271 425.326569,90.793983 
	C433.128540,90.486473 442.292389,87.464058 448.838898,95.816727 
z"/>
<path fill="#E3FAFD" opacity="1.000000" stroke="none" 
	d="
M309.115936,365.035400 
	C319.114746,375.493683 329.062500,386.344696 339.091736,397.519775 
	C336.983795,396.589386 334.316925,395.774811 332.686615,394.005249 
	C325.132050,385.805450 317.836060,377.365753 310.537354,368.934235 
	C309.748779,368.023254 309.541687,366.609009 309.115936,365.035400 
z"/>
<path fill="#E3FAFD" opacity="1.000000" stroke="none" 
	d="
M401.766846,100.108719 
	C391.372131,110.116394 380.592773,120.066612 369.491058,130.099594 
	C370.434082,127.971283 371.299011,125.360741 373.035675,123.619873 
	C379.729706,116.909706 386.575104,110.334709 393.649689,104.029785 
	C395.744934,102.162491 398.778595,101.348129 401.766846,100.108719 
z"/>
<path fill="#E3FAFD" opacity="1.000000" stroke="none" 
	d="
M368.801758,130.117188 
	C364.367523,135.080338 359.551300,139.987167 354.414948,144.996628 
	C354.199280,143.975494 353.869446,142.441406 354.479706,141.795532 
	C358.065399,138.000504 361.825684,134.364761 365.646576,130.803452 
	C366.264709,130.227325 367.480347,130.292267 368.801758,130.117188 
z"/>
<path fill="#E3FAFD" opacity="1.000000" stroke="none" 
	d="
M339.100250,398.226318 
	C343.385040,402.332642 347.617767,406.814240 351.973724,411.607483 
	C351.284973,411.854034 350.091553,412.112152 349.720154,411.673798 
	C346.084473,407.382812 342.585785,402.975708 339.100250,398.226318 
z"/>
<path fill="#E3FAFD" opacity="1.000000" stroke="none" 
	d="
M282.701660,215.039154 
	C279.931763,218.307373 276.791443,221.552078 273.335419,224.909271 
	C274.090271,219.794235 277.653076,216.885941 282.701660,215.039154 
z"/>
<path fill="#E3FAFD" opacity="1.000000" stroke="none" 
	d="
M288.752991,209.094666 
	C287.319214,211.037231 285.499664,212.937225 283.371338,214.954620 
	C282.928528,211.389175 284.584076,209.283264 288.752991,209.094666 
z"/>
<path fill="#E3FAFD" opacity="1.000000" stroke="none" 
	d="
M513.320984,153.262848 
	C512.439819,152.849136 511.800385,152.260086 511.039062,151.367065 
	C511.637970,151.170578 512.358826,151.278061 513.543335,151.713226 
	C513.858887,152.389771 513.710815,152.738647 513.320984,153.262848 
z"/>
<path fill="#E3FAFD" opacity="1.000000" stroke="none" 
	d="
M254.073364,302.182678 
	C254.345917,302.032349 254.587997,302.217987 254.760773,302.758484 
	C254.494965,302.873962 254.278793,302.675751 254.073364,302.182678 
z"/>
<path fill="#E3FAFD" opacity="1.000000" stroke="none" 
	d="
M255.150269,303.991455 
	C255.371124,303.959320 255.632828,304.208832 255.960098,304.726746 
	C255.747482,304.754486 255.469299,304.513794 255.150269,303.991455 
z"/>
<path fill="#E3FAFD" opacity="1.000000" stroke="none" 
	d="
M257.177185,306.931946 
	C257.415680,306.889221 257.693359,307.140717 258.038208,307.669556 
	C257.809082,307.706635 257.512695,307.466400 257.177185,306.931946 
z"/>
<path fill="#E3FAFD" opacity="1.000000" stroke="none" 
	d="
M512.381897,405.896149 
	C512.120728,405.675354 512.319641,405.403534 512.760254,405.031738 
	C513.153198,405.009796 513.304565,405.087860 513.594604,405.380280 
	C513.436218,405.678101 513.139099,405.761597 512.381897,405.896149 
z"/>
<path fill="#FDFEFE" opacity="1.000000" stroke="none" 
	d="
M543.535950,182.075714 
	C555.388428,170.418579 567.236206,158.756729 579.094666,147.105728 
	C590.279358,136.116638 601.844238,136.273911 613.057373,147.260223 
	C649.539551,183.004303 686.052795,218.716949 722.643860,254.349442 
	C735.415039,266.786011 736.029785,282.140045 724.145996,295.461853 
	C690.363037,333.332764 656.634033,371.251709 622.913879,409.178528 
	C611.037354,422.536652 596.005371,423.010742 583.561340,410.086060 
	C570.998291,397.037659 558.627686,383.803986 546.474915,370.201385 
	C562.996582,352.807556 579.380249,336.017181 595.394348,318.881470 
	C615.691956,297.162262 618.106812,266.046783 601.019775,242.443771 
	C595.899353,235.370712 589.175842,229.421616 582.953796,223.190247 
	C569.808105,210.024857 556.508728,197.012955 543.240723,183.621826 
	C543.317993,182.895615 543.427002,182.485657 543.535950,182.075714 
z"/>
<path fill="#35A4D7" opacity="1.000000" stroke="none" 
	d="
M543.272400,183.938095 
	C556.508728,197.012955 569.808105,210.024857 582.953796,223.190247 
	C589.175842,229.421616 595.899353,235.370712 601.019775,242.443771 
	C618.106812,266.046783 615.691956,297.162262 595.394348,318.881470 
	C579.380249,336.017181 562.996582,352.807556 546.474976,369.862732 
	C545.971619,369.961578 545.770325,369.948944 545.114380,369.625732 
	C535.286255,359.550903 525.891235,349.807190 516.568787,339.994568 
	C515.489929,338.859009 514.813843,337.340790 514.030884,335.667358 
	C528.154846,320.887207 542.231812,306.471375 556.233032,291.982330 
	C567.947998,279.859161 568.011353,267.128540 556.220154,255.107300 
	C547.240784,245.952759 537.915039,237.139053 528.847046,228.070068 
	C523.808899,223.031342 518.983276,217.780182 514.079224,212.302460 
	C523.061218,202.920929 532.013855,193.849792 541.020996,184.833206 
	C541.545044,184.308609 542.511719,184.226242 543.272400,183.938095 
z"/>
<path fill="#29566E" opacity="1.000000" stroke="none" 
	d="
M513.951050,335.999969 
	C514.813843,337.340790 515.489929,338.859009 516.568787,339.994568 
	C525.891235,349.807190 535.286255,359.550903 544.813477,369.594482 
	C544.506897,370.887848 544.279480,372.126740 543.550781,372.882050 
	C533.567688,383.229462 523.515442,393.510101 513.163940,403.960693 
	C502.025665,392.979767 491.203613,381.845276 480.540466,370.209717 
	C490.572693,359.536133 500.466003,349.382690 510.284241,339.157166 
	C511.130157,338.276215 511.479156,336.918152 512.372498,335.838196 
	C513.107666,335.929779 513.529358,335.964874 513.951050,335.999969 
z"/>
<path fill="#28556D" opacity="1.000000" stroke="none" 
	d="
M543.240723,183.621826 
	C542.511719,184.226242 541.545044,184.308609 541.020996,184.833206 
	C532.013855,193.849792 523.061218,202.920929 513.731750,212.345596 
	C512.917175,212.828003 512.467529,212.944931 511.999329,212.710373 
	C505.826569,206.001968 499.743469,199.573990 493.489227,193.317062 
	C490.182007,190.008453 486.576935,186.997589 483.106323,183.852295 
	C490.312225,176.437363 497.518158,169.022446 504.861359,161.303101 
	C507.494965,158.788345 509.991302,156.578033 512.794556,154.240448 
	C520.240540,161.074799 527.334778,168.083359 534.542542,174.973145 
	C537.147522,177.463242 540.024780,179.668579 543.156860,182.039764 
	C543.427002,182.485657 543.317993,182.895615 543.240723,183.621826 
z"/>
<path fill="#FDFEFE" opacity="1.000000" stroke="none" 
	d="
M479.377014,369.999695 
	C478.699768,371.086548 478.181854,372.323395 477.321228,373.237610 
	C465.797180,385.479248 454.219604,397.670563 442.666779,409.885162 
	C430.636688,422.604370 415.881622,422.749237 403.999268,409.820129 
	C391.610474,396.339996 379.565186,382.543854 367.388428,368.869263 
	C346.133942,345.000244 324.883026,321.128082 303.655548,297.235077 
	C298.530365,291.466339 293.834259,285.564758 293.637634,277.182404 
	C293.433136,268.463867 296.366516,261.486603 302.685120,255.384491 
	C329.275818,229.704926 355.683319,203.835342 382.111298,177.987686 
	C392.947510,167.389389 403.643677,156.648056 414.444397,146.013260 
	C423.928253,136.675140 436.552521,136.816376 445.962494,146.224045 
	C456.679291,156.938187 467.465576,167.582779 478.174530,178.304703 
	C479.678131,179.810089 480.913818,181.583115 482.018799,183.837646 
	C464.445251,201.740662 446.882690,218.802612 429.868500,236.394913 
	C408.094147,258.909088 408.302368,295.089752 429.874603,317.854797 
	C446.359650,335.251343 462.875122,352.619110 479.377014,369.999695 
z"/>
<path fill="#31A4D9" opacity="1.000000" stroke="none" 
	d="
M315.809204,183.778259 
	C319.204559,181.614319 322.929626,179.851395 325.942230,177.260178 
	C329.785889,173.954117 333.047852,169.972946 336.572632,166.294388 
	C338.527130,164.254608 340.440460,162.169006 342.488770,160.226837 
	C346.216583,156.692184 350.054932,153.274323 353.799927,149.757446 
	C355.787079,147.891327 357.675720,145.920212 359.607819,143.995499 
	C365.825867,137.801208 372.051086,131.614120 378.258362,125.409065 
	C382.081421,121.587395 385.863373,117.724586 389.687866,113.904373 
	C394.319214,109.278259 399.134705,105.320168 405.266205,102.253998 
	C411.610565,99.081367 417.855225,96.516930 424.709381,95.695877 
	C433.747528,94.613174 442.186096,96.240280 450.749084,100.240341 
	C461.477722,105.252068 469.155579,112.993507 476.620483,121.674011 
	C482.274109,128.248276 489.097412,133.810059 495.323151,139.901108 
	C499.954620,144.432327 504.462708,149.089630 508.704803,153.367142 
	C507.266357,155.999252 506.121857,158.093491 504.942413,160.547592 
	C499.684082,165.012146 493.973999,168.648300 489.411163,173.388763 
	C486.445007,176.470367 485.318268,177.385025 481.146851,174.814133 
	C470.431335,168.210022 462.851593,158.478714 454.303101,149.754120 
	C443.218536,138.441193 434.300415,134.090805 418.497620,139.125916 
	C416.343353,139.812302 414.555695,141.870300 412.790436,143.501190 
	C410.541962,145.578583 408.549591,147.930527 406.342163,150.055435 
	C393.073395,162.828003 379.727661,175.520981 366.506744,188.342682 
	C360.344574,194.318726 354.477966,200.598740 348.346405,206.607315 
	C339.778870,215.003006 331.024536,223.208359 322.474152,231.621216 
	C316.955139,237.051483 311.617432,242.668579 306.276123,248.275940 
	C302.649750,252.082947 298.743164,255.727753 295.752777,259.998840 
	C293.777161,262.820557 292.910767,266.554749 292.091644,270.009369 
	C291.374573,273.033600 291.515442,276.250977 291.102448,279.359802 
	C290.224884,285.965973 294.806885,290.208862 298.269745,294.518829 
	C306.217224,304.410461 314.738586,313.850372 323.215729,323.304443 
	C332.106720,333.220062 341.363312,342.809845 350.179077,352.790253 
	C355.535522,358.854309 360.226807,365.501556 365.472534,371.669373 
	C368.668854,375.427551 372.421997,378.706085 375.799561,382.317413 
	C381.798676,388.731659 387.591583,395.341675 393.678986,401.669464 
	C399.136353,407.342255 404.608490,413.052612 410.554016,418.191101 
	C418.225098,424.820831 427.061676,422.591614 434.767273,418.781525 
	C440.079834,416.154694 444.237457,411.072418 448.688171,406.852264 
	C454.426666,401.411011 460.052246,395.839874 465.517303,390.124664 
	C469.493896,385.966003 473.137665,381.488464 476.916046,377.141205 
	C477.770111,376.158539 478.567291,375.126434 479.791809,373.625305 
	C483.910828,377.630951 487.855713,381.323547 491.634033,385.179413 
	C495.957306,389.591370 500.027039,394.254272 504.401855,398.612488 
	C508.771057,402.965149 508.644318,406.017334 504.226990,410.268250 
	C496.451752,417.750732 488.915161,425.481323 481.286652,433.116058 
	C473.653809,440.755096 467.021515,449.940399 458.152557,455.659393 
	C447.088257,462.794037 434.637054,468.497772 420.283875,465.329742 
	C410.899078,463.258240 402.715118,458.874359 394.754059,453.851929 
	C393.371307,452.979645 392.156616,451.757538 391.067261,450.518555 
	C387.022339,445.917908 383.113464,441.197418 379.058990,436.605377 
	C371.629242,428.190460 364.260895,419.715363 356.623322,411.491638 
	C350.353210,404.740265 343.615479,398.424561 337.298584,391.714752 
	C332.071838,386.162903 327.211761,380.267822 322.090881,374.613892 
	C314.783051,366.545288 307.299957,358.634338 300.051392,350.513519 
	C293.517731,343.193604 287.325470,335.567383 280.743347,328.292786 
	C275.910248,322.951233 270.132446,318.389099 265.766296,312.717102 
	C258.107788,302.767944 250.184952,293.128754 248.655121,279.488312 
	C247.551895,269.651917 251.299210,261.433838 253.386551,252.587692 
	C253.709854,251.217529 254.793350,249.930954 255.774414,248.827148 
	C262.652618,241.088455 269.464020,233.283371 276.561798,225.749161 
	C281.983429,219.994141 287.837646,214.648392 293.384644,209.007706 
	C294.213623,208.164703 294.412994,206.702545 294.822693,205.147995 
	C294.741760,204.769180 294.785278,204.792999 295.198730,204.863068 
	C296.347076,203.898697 297.081970,202.864258 297.816864,201.829834 
	C297.816864,201.829834 297.894440,201.826706 298.132629,201.787964 
	C298.547974,201.447739 298.725159,201.146271 298.902313,200.844788 
	C298.902313,200.844788 298.941132,200.935791 299.156281,200.845795 
	C299.544250,200.450958 299.717072,200.146133 299.889862,199.841309 
	C299.889862,199.841309 299.844543,199.936310 300.214172,199.938080 
	C305.275940,197.420364 309.945221,194.879654 310.850128,188.853134 
	C310.850128,188.853134 310.969666,188.889984 311.170227,188.822296 
	C311.542633,188.449005 311.714508,188.143433 311.886353,187.837860 
	C311.886383,187.837860 311.943115,187.939880 312.153870,187.845352 
	C312.534698,187.446167 312.704712,187.141510 312.874725,186.836853 
	C312.874725,186.836853 312.943115,186.959473 313.153137,186.853012 
	C313.534973,186.441116 313.706757,186.135681 313.878540,185.830231 
	C313.878510,185.830231 313.965118,185.913879 314.169067,185.831970 
	C314.549927,185.448807 314.726807,185.147537 314.903687,184.846268 
	C314.903687,184.846268 314.941772,184.937164 315.156494,184.847122 
	C315.542694,184.452637 315.714172,184.148178 315.885620,183.843735 
	C315.885620,183.843735 315.822357,183.811279 315.809204,183.778259 
z"/>
<path fill="#5A5E60" opacity="1.000000" stroke="none" 
	d="
M479.580139,369.998474 
	C462.875122,352.619110 446.359650,335.251343 429.874603,317.854797 
	C408.302368,295.089752 408.094147,258.909088 429.868500,236.394913 
	C446.882690,218.802612 464.445251,201.740662 482.021942,184.200623 
	C482.279755,183.958206 482.699280,183.964371 482.902802,183.908340 
	C486.576935,186.997589 490.182007,190.008453 493.489227,193.317062 
	C499.743469,199.573990 505.826569,206.001968 511.887329,213.023865 
	C507.417236,217.996933 503.017456,222.281830 498.668518,226.617752 
	C487.971405,237.283005 476.946533,247.648544 466.726044,258.753632 
	C458.597015,267.586182 459.158966,279.553436 466.976227,288.673401 
	C468.596161,290.563293 470.342987,292.346680 472.067932,294.143982 
	C485.393188,308.028107 498.727478,321.903564 512.058960,335.781738 
	C511.479156,336.918152 511.130157,338.276215 510.284241,339.157166 
	C500.466003,349.382690 490.572693,359.536133 480.437927,369.903656 
	C480.176575,370.098633 479.783234,369.997223 479.580139,369.998474 
z"/>
<path fill="#4CA1C4" opacity="1.000000" stroke="none" 
	d="
M310.540894,188.976730 
	C309.945221,194.879654 305.275940,197.420364 300.209381,199.885681 
	C303.300568,196.254440 306.766113,192.677383 310.540894,188.976730 
z"/>
<path fill="#4CA1C4" opacity="1.000000" stroke="none" 
	d="
M297.518341,201.920746 
	C297.081970,202.864258 296.347076,203.898697 295.219910,204.875931 
	C295.625031,203.883041 296.422424,202.947357 297.518341,201.920746 
z"/>
<path fill="#4CA1C4" opacity="1.000000" stroke="none" 
	d="
M315.625488,183.919708 
	C315.714172,184.148178 315.542694,184.452637 315.109619,184.832031 
	C315.020447,184.603226 315.192902,184.299454 315.625488,183.919708 
z"/>
<path fill="#4CA1C4" opacity="1.000000" stroke="none" 
	d="
M298.638336,200.912689 
	C298.725159,201.146271 298.547974,201.447739 298.107361,201.817444 
	C298.020752,201.583984 298.197540,201.282288 298.638336,200.912689 
z"/>
<path fill="#4CA1C4" opacity="1.000000" stroke="none" 
	d="
M299.628052,199.916107 
	C299.717072,200.146133 299.544250,200.450958 299.109131,200.830826 
	C299.019989,200.600876 299.193115,200.295898 299.628052,199.916107 
z"/>
<path fill="#4CA1C4" opacity="1.000000" stroke="none" 
	d="
M311.620544,187.907333 
	C311.714508,188.143433 311.542633,188.449005 311.108093,188.829437 
	C311.015198,188.595123 311.184967,188.285965 311.620544,187.907333 
z"/>
<path fill="#4CA1C4" opacity="1.000000" stroke="none" 
	d="
M312.610596,186.903091 
	C312.704712,187.141510 312.534698,187.446167 312.101196,187.820282 
	C312.007294,187.582916 312.176880,187.276123 312.610596,186.903091 
z"/>
<path fill="#4CA1C4" opacity="1.000000" stroke="none" 
	d="
M313.608215,185.887085 
	C313.706757,186.135681 313.534973,186.441116 313.096924,186.810959 
	C312.999786,186.564880 313.168854,186.254395 313.608215,185.887085 
z"/>
<path fill="#4CA1C4" opacity="1.000000" stroke="none" 
	d="
M314.640778,184.915497 
	C314.726807,185.147537 314.549927,185.448807 314.110229,185.819214 
	C314.024261,185.587173 314.201080,185.285965 314.640778,184.915497 
z"/>
<path fill="#FCFEFE" opacity="1.000000" stroke="none" 
	d="
M512.372437,335.838196 
	C498.727478,321.903564 485.393188,308.028107 472.067932,294.143982 
	C470.342987,292.346680 468.596161,290.563293 466.976227,288.673401 
	C459.158966,279.553436 458.597015,267.586182 466.726044,258.753632 
	C476.946533,247.648544 487.971405,237.283005 498.668518,226.617752 
	C503.017456,222.281830 507.417236,217.996933 511.905884,213.375336 
	C512.467529,212.944931 512.917175,212.828003 513.714355,212.667938 
	C518.983276,217.780182 523.808899,223.031342 528.847046,228.070068 
	C537.915039,237.139053 547.240784,245.952759 556.220154,255.107300 
	C568.011353,267.128540 567.947998,279.859161 556.233032,291.982330 
	C542.231812,306.471375 528.154846,320.887207 514.030884,335.667358 
	C513.529358,335.964874 513.107666,335.929779 512.372437,335.838196 
z"/>
</svg>